{
    "asset" : {
        "generator" : "Khronos glTF Blender I/O v1.0.5",
        "version" : "2.0"
    },
    "scene" : 0,
    "scenes" : [
        {
            "name" : "Scene",
            "nodes" : [
                0
            ]
        }
    ],
    "nodes" : [
        {
            "mesh" : 0,
            "name" : "Esfera.001",
            "rotation" : [
                0.7071068286895752,
                0,
                0,
                0.7071068286895752
            ]
        }
    ],
    "animations" : [
        {
            "channels" : [
                {
                    "sampler" : 0,
                    "target" : {
                        "node" : 0,
                        "path" : "translation"
                    }
                }
            ],
            "name" : "My Animation_Esfera.003",
            "samplers" : [
                {
                    "input" : 16,
                    "interpolation" : "LINEAR",
                    "output" : 17
                }
            ]
        }
    ],
    "materials" : [
        {
            "doubleSided" : true,
            "emissiveFactor" : [
                1,
                1,
                1
            ],
            "name" : "LuzBlanco.001",
            "pbrMetallicRoughness" : {
                "baseColorFactor" : [
                    1,
                    1,
                    1,
                    1
                ],
                "metallicFactor" : 1,
                "roughnessFactor" : 1
            }
        },
        {
            "doubleSided" : true,
            "emissiveFactor" : [
                0,
                1,
                0.015945523977279663
            ],
            "name" : "Material.008",
            "pbrMetallicRoughness" : {
                "baseColorFactor" : [
                    1,
                    1,
                    1,
                    1
                ],
                "metallicFactor" : 1,
                "roughnessFactor" : 1
            }
        },
        {
            "doubleSided" : true,
            "name" : "Material.007",
            "pbrMetallicRoughness" : {
                "baseColorFactor" : [
                    0,
                    0,
                    0,
                    1
                ],
                "metallicFactor" : 0,
                "roughnessFactor" : 0.5
            }
        },
        {
            "doubleSided" : true,
            "name" : "Material.005",
            "pbrMetallicRoughness" : {
                "baseColorFactor" : [
                    0,
                    0,
                    0,
                    1
                ],
                "metallicFactor" : 0,
                "roughnessFactor" : 0.5
            }
        }
    ],
    "meshes" : [
        {
            "name" : "Esfera.007",
            "primitives" : [
                {
                    "attributes" : {
                        "POSITION" : 0,
                        "NORMAL" : 1,
                        "TEXCOORD_0" : 2
                    },
                    "indices" : 3,
                    "material" : 0
                },
                {
                    "attributes" : {
                        "POSITION" : 4,
                        "NORMAL" : 5,
                        "TEXCOORD_0" : 6
                    },
                    "indices" : 7,
                    "material" : 1
                },
                {
                    "attributes" : {
                        "POSITION" : 8,
                        "NORMAL" : 9,
                        "TEXCOORD_0" : 10
                    },
                    "indices" : 11,
                    "material" : 2
                },
                {
                    "attributes" : {
                        "POSITION" : 12,
                        "NORMAL" : 13,
                        "TEXCOORD_0" : 14
                    },
                    "indices" : 15,
                    "material" : 3
                }
            ]
        }
    ],
    "accessors" : [
        {
            "bufferView" : 0,
            "componentType" : 5126,
            "count" : 2423,
            "max" : [
                0.9993703365325928,
                1.0351163148880005,
                1.0166435241699219
            ],
            "min" : [
                -1.0006296634674072,
                -1.032835841178894,
                -0.9833564758300781
            ],
            "type" : "VEC3"
        },
        {
            "bufferView" : 1,
            "componentType" : 5126,
            "count" : 2423,
            "type" : "VEC3"
        },
        {
            "bufferView" : 2,
            "componentType" : 5126,
            "count" : 2423,
            "type" : "VEC2"
        },
        {
            "bufferView" : 3,
            "componentType" : 5123,
            "count" : 3450,
            "type" : "SCALAR"
        },
        {
            "bufferView" : 4,
            "componentType" : 5126,
            "count" : 20,
            "max" : [
                0.8703210353851318,
                1.0235711336135864,
                0.25065991282463074
            ],
            "min" : [
                0.16211482882499695,
                -1.02129065990448,
                -0.10344316065311432
            ],
            "type" : "VEC3"
        },
        {
            "bufferView" : 5,
            "componentType" : 5126,
            "count" : 20,
            "type" : "VEC3"
        },
        {
            "bufferView" : 6,
            "componentType" : 5126,
            "count" : 20,
            "type" : "VEC2"
        },
        {
            "bufferView" : 7,
            "componentType" : 5123,
            "count" : 24,
            "type" : "SCALAR"
        },
        {
            "bufferView" : 8,
            "componentType" : 5126,
            "count" : 189,
            "max" : [
                0.07453034818172455,
                1.0297080278396606,
                0.11134575307369232
            ],
            "min" : [
                -0.4466908276081085,
                -1.0274266004562378,
                -0.4140186607837677
            ],
            "type" : "VEC3"
        },
        {
            "bufferView" : 9,
            "componentType" : 5126,
            "count" : 189,
            "type" : "VEC3"
        },
        {
            "bufferView" : 10,
            "componentType" : 5126,
            "count" : 189,
            "type" : "VEC2"
        },
        {
            "bufferView" : 11,
            "componentType" : 5123,
            "count" : 276,
            "type" : "SCALAR"
        },
        {
            "bufferView" : 12,
            "componentType" : 5126,
            "count" : 2068,
            "max" : [
                0.9466826915740967,
                0.9504920244216919,
                0.963007926940918
            ],
            "min" : [
                -0.9520180225372314,
                -0.9482086896896362,
                -0.9356937408447266
            ],
            "type" : "VEC3"
        },
        {
            "bufferView" : 13,
            "componentType" : 5126,
            "count" : 2068,
            "type" : "VEC3"
        },
        {
            "bufferView" : 14,
            "componentType" : 5126,
            "count" : 2068,
            "type" : "VEC2"
        },
        {
            "bufferView" : 15,
            "componentType" : 5123,
            "count" : 2880,
            "type" : "SCALAR"
        },
        {
            "bufferView" : 16,
            "componentType" : 5126,
            "count" : 231,
            "max" : [
                9.583333333333334
            ],
            "min" : [
                0
            ],
            "type" : "SCALAR"
        },
        {
            "bufferView" : 17,
            "componentType" : 5126,
            "count" : 231,
            "type" : "VEC3"
        }
    ],
    "bufferViews" : [
        {
            "buffer" : 0,
            "byteLength" : 29076,
            "byteOffset" : 0
        },
        {
            "buffer" : 0,
            "byteLength" : 29076,
            "byteOffset" : 29076
        },
        {
            "buffer" : 0,
            "byteLength" : 19384,
            "byteOffset" : 58152
        },
        {
            "buffer" : 0,
            "byteLength" : 6900,
            "byteOffset" : 77536
        },
        {
            "buffer" : 0,
            "byteLength" : 240,
            "byteOffset" : 84436
        },
        {
            "buffer" : 0,
            "byteLength" : 240,
            "byteOffset" : 84676
        },
        {
            "buffer" : 0,
            "byteLength" : 160,
            "byteOffset" : 84916
        },
        {
            "buffer" : 0,
            "byteLength" : 48,
            "byteOffset" : 85076
        },
        {
            "buffer" : 0,
            "byteLength" : 2268,
            "byteOffset" : 85124
        },
        {
            "buffer" : 0,
            "byteLength" : 2268,
            "byteOffset" : 87392
        },
        {
            "buffer" : 0,
            "byteLength" : 1512,
            "byteOffset" : 89660
        },
        {
            "buffer" : 0,
            "byteLength" : 552,
            "byteOffset" : 91172
        },
        {
            "buffer" : 0,
            "byteLength" : 24816,
            "byteOffset" : 91724
        },
        {
            "buffer" : 0,
            "byteLength" : 24816,
            "byteOffset" : 116540
        },
        {
            "buffer" : 0,
            "byteLength" : 16544,
            "byteOffset" : 141356
        },
        {
            "buffer" : 0,
            "byteLength" : 5760,
            "byteOffset" : 157900
        },
        {
            "buffer" : 0,
            "byteLength" : 924,
            "byteOffset" : 163660
        },
        {
            "buffer" : 0,
            "byteLength" : 2772,
            "byteOffset" : 164584
        }
    ],
    "buffers" : [
        {
            "byteLength" : 167356,
            "uri" : "data:application/octet-stream;base64,"
        }
    ]
}
