{
    "asset" : {
        "generator" : "Khronos glTF Blender I/O v1.0.5",
        "version" : "2.0"
    },
    "scene" : 0,
    "scenes" : [
        {
            "name" : "Scene",
            "nodes" : [
                5
            ]
        }
    ],
    "nodes" : [
        {
            "mesh" : 0,
            "name" : "Object_5"
        },
        {
            "children" : [
                0
            ],
            "name" : "Plane_2",
            "rotation" : [
                0,
                -0.7071067094802856,
                0,
                0.7071068286895752
            ],
            "scale" : [
                0.10000002384185791,
                0.10000002384185791,
                0.10000002384185791
            ]
        },
        {
            "children" : [
                1
            ],
            "name" : "GLTF_SceneRootNode",
            "rotation" : [
                0.7071068286895752,
                0,
                0,
                0.7071068286895752
            ]
        },
        {
            "children" : [
                2
            ],
            "name" : "root"
        },
        {
            "children" : [
                3
            ],
            "name" : "RootNode (model correction matrix)"
        },
        {
            "children" : [
                4
            ],
            "name" : "RootNode (gltf orientation matrix)"
        }
    ],
    "materials" : [
        {
            "doubleSided" : true,
            "name" : "Material.001",
            "pbrMetallicRoughness" : {
                "baseColorFactor" : [
                    1,
                    0.4428040087223053,
                    0.01875689998269081,
                    1
                ],
                "metallicFactor" : 0.9380567073822021,
                "roughnessFactor" : 0.35436010360717773
            }
        }
    ],
    "meshes" : [
        {
            "name" : "Mesh_0",
            "primitives" : [
                {
                    "attributes" : {
                        "POSITION" : 0,
                        "NORMAL" : 1,
                        "TEXCOORD_0" : 2
                    },
                    "indices" : 3,
                    "material" : 0
                }
            ]
        }
    ],
    "accessors" : [
        {
            "bufferView" : 0,
            "componentType" : 5126,
            "count" : 15411,
            "max" : [
                24.382369995117188,
                1.5745017528533936,
                0.24999995529651642
            ],
            "min" : [
                -4.525988578796387,
                -1.5745017528533936,
                -0.24999995529651642
            ],
            "type" : "VEC3"
        },
        {
            "bufferView" : 1,
            "componentType" : 5126,
            "count" : 15411,
            "type" : "VEC3"
        },
        {
            "bufferView" : 2,
            "componentType" : 5126,
            "count" : 15411,
            "type" : "VEC2"
        },
        {
            "bufferView" : 3,
            "componentType" : 5123,
            "count" : 59010,
            "type" : "SCALAR"
        }
    ],
    "bufferViews" : [
        {
            "buffer" : 0,
            "byteLength" : 184932,
            "byteOffset" : 0
        },
        {
            "buffer" : 0,
            "byteLength" : 184932,
            "byteOffset" : 184932
        },
        {
            "buffer" : 0,
            "byteLength" : 123288,
            "byteOffset" : 369864
        },
        {
            "buffer" : 0,
            "byteLength" : 118020,
            "byteOffset" : 493152
        }
    ],
    "buffers" : [
        {
            "byteLength" : 611172,
            "uri" : "data:application/octet-stream;base64,"
        }
    ]
}
