{
  "accessors": [
    {
      "bufferView": 2,
      "componentType": 5126,
      "count": 11502,
      "max": [
        24.382369995117188,
        0.24999995529651642,
        1.5745017528533936
      ],
      "min": [
        -4.5259885787963867,
        -0.24999995529651642,
        -1.5745017528533936
      ],
      "type": "VEC3"
    },
    {
      "bufferView": 2,
      "byteOffset": 138024,
      "componentType": 5126,
      "count": 11502,
      "max": [
        0.99997133016586304,
        1,
        1
      ],
      "min": [
        -1,
        -1,
        -1
      ],
      "type": "VEC3"
    },
    {
      "bufferView": 1,
      "componentType": 5126,
      "count": 11502,
      "max": [
        1.0000002384185791,
        1.0000002384185791
      ],
      "min": [
        0,
        0.49868538975715637
      ],
      "type": "VEC2"
    },
    {
      "bufferView": 0,
      "componentType": 5125,
      "count": 59013,
      "max": [
        11501
      ],
      "min": [
        0
      ],
      "type": "SCALAR"
    }
  ],
  "asset": {
    "extras": {
      "author": "ABSoln (https://sketchfab.com/ABSoln)",
      "license": "CC-BY-NC-4.0 (http://creativecommons.org/licenses/by-nc/4.0/)",
      "source": "https://sketchfab.com/3d-models/trident-of-atlantis-aquaman-0db2d58cf73e4ab7b36290c98b8ca6e3",
      "title": "Trident Of Atlantis (Aquaman)"
    },
    "generator": "Sketchfab-9.24.0",
    "version": "2.0"
  },
  "bufferViews": [
    {
      "buffer": 0,
      "byteLength": 236052,
      "byteOffset": 0,
      "name": "floatBufferViews",
      "target": 34963
    },
    {
      "buffer": 0,
      "byteLength": 92016,
      "byteOffset": 236052,
      "byteStride": 8,
      "name": "floatBufferViews",
      "target": 34962
    },
    {
      "buffer": 0,
      "byteLength": 276048,
      "byteOffset": 328068,
      "byteStride": 12,
      "name": "floatBufferViews",
      "target": 34962
    }
  ],
  "buffers": [
    {
      "byteLength": 604116,
      "uri": "scene.bin"
    }
  ],
  "materials": [
    {
      "doubleSided": true,
      "name": "Material.001",
      "pbrMetallicRoughness": {
        "baseColorFactor": [
          1,
          0.44280399999999998,
          0.0187569,
          1
        ],
        "metallicFactor": 0.93805671585526762,
        "roughnessFactor": 0.35436009217542519
      }
    }
  ],
  "meshes": [
    {
      "primitives": [
        {
          "attributes": {
            "NORMAL": 1,
            "POSITION": 0,
            "TEXCOORD_0": 2
          },
          "indices": 3,
          "material": 0,
          "mode": 4
        }
      ]
    }
  ],
  "nodes": [
    {
      "children": [
        1
      ],
      "name": "RootNode (gltf orientation matrix)",
      "rotation": [
        -0.70710678118654746,
        -0,
        -0,
        0.70710678118654757
      ]
    },
    {
      "children": [
        2
      ],
      "name": "RootNode (model correction matrix)"
    },
    {
      "children": [
        3
      ],
      "name": "root"
    },
    {
      "children": [
        4
      ],
      "matrix": [
        1,
        0,
        0,
        0,
        0,
        2.2204460492503131e-16,
        1,
        0,
        0,
        -1,
        2.2204460492503131e-16,
        0,
        0,
        0,
        0,
        1
      ],
      "name": "GLTF_SceneRootNode"
    },
    {
      "children": [
        5
      ],
      "matrix": [
        8.4293714899189711e-09,
        -0.10000002384185756,
        -0,
        0,
        0.10000002384185756,
        8.4293714899189711e-09,
        0,
        0,
        0,
        -0,
        0.10000002384185791,
        0,
        0,
        0,
        0,
        1
      ],
      "name": "Plane_2"
    },
    {
      "mesh": 0,
      "name": ""
    }
  ],
  "scene": 0,
  "scenes": [
    {
      "name": "OSG_Scene",
      "nodes": [
        0
      ]
    }
  ]
}

